<svg xmlns="http://www.w3.org/2000/svg" xmlns:xlink="http://www.w3.org/1999/xlink" version="1.1" x="0px" y="0px" viewBox="0 0 100 100" enable-background="new 0 0 100 100" xml:space="preserve"><path fill="#000000" d="M90.3,60.2c0-12.5-3.3-25.2-9.7-25.5c0,0,0,0,0,0c-13.4-1.4-19.9,0.9-26.1,3c-4.6,1.6-8.9,3.1-16.1,3  c-0.1,0-0.2,0-0.2,0c0,0-0.1,0-0.1,0c-0.2,0-0.5,0-0.7,0c-3.3-0.1-5.6-1.1-6.7-3c-1.6-2.8-0.6-7.3,0.6-9.5c1-1.8,3.4-3.2,5.4-3.2  c1.5,0,1.9,0.8,2.1,1.1c1.3,2.6,4.1,3.6,6.6,2.3c2.5-1.2,4.2-4.6,2-9.1c-1.6-3.2-5.2-5.6-9.6-6.4c-6.2-1.1-12.8,1.1-17.6,5.8  c-7.9,7.8-11.9,21.7-9.8,34.7c1.8,11.8,8.3,21.1,18.2,26c11.8,5.9,26.9,7.7,38.2,7.7c7.4,0,13.3-0.8,15.5-1.7  c0.2-0.1,0.4-0.2,0.6-0.4C87.7,82.6,90.3,71.3,90.3,60.2z M86.3,60.2c0,13.9-3.9,21.5-5.9,21.5s-5.9-7.6-5.9-21.5s3.9-21.5,5.9-21.5  S86.3,46.3,86.3,60.2z M30.2,75.9c-8.7-4.4-14.4-12.6-16-23.1c-1.8-11.6,1.8-24.4,8.7-31.2c3.9-3.8,9.2-5.6,14.1-4.7  c3.2,0.5,5.7,2.1,6.7,4.2c1,2.1,0.6,3.4-0.1,3.8c-0.2,0.1-0.8,0.3-1.3-0.5c-1-2.1-3.1-3.3-5.6-3.3c-3.5-0.1-7.3,2.2-9,5.3  c-0.8,1.5-1.8,4.2-1.9,7.1c-2.5-0.2-5.8,0.6-8.2,4.3c-0.6,0.9-0.3,2.2,0.6,2.8c0.3,0.2,0.7,0.3,1.1,0.3c0.7,0,1.3-0.3,1.7-0.9  c1.9-3,4.4-2.6,5.3-2.3c0.2,0.8,0.5,1.5,0.9,2.2c0.7,1.2,1.8,2.5,3.6,3.4c-2.8,1.8-5.1,4.8-5.5,9.4c-0.1,1.1,0.7,2.1,1.8,2.2  c0.1,0,0.1,0,0.2,0c1,0,1.9-0.8,2-1.8c0.6-7.1,7.6-8,8.9-8.1c1.4,0,2.7,0,4-0.1c-2.5,3-4.6,7.6-3.9,14.3c0.1,1,1,1.8,2,1.8  c0.1,0,0.2,0,0.2,0c1.1-0.1,1.9-1.1,1.8-2.2C41,47.1,49.6,43.8,50,43.6c0.3-0.1,0.5-0.3,0.7-0.4c1.8-0.5,3.5-1.1,5.1-1.6  c0.9-0.3,1.8-0.6,2.7-0.9c-0.3,0.3-0.5,0.6-0.8,0.9c-3.2,3.8-6.5,10.9-4.3,22.6c0.2,1,1,1.6,2,1.6c0.1,0,0.2,0,0.4,0  c1.1-0.2,1.8-1.2,1.6-2.3c-1.5-8.1-0.3-14.7,3.5-19.3c3.2-3.9,7.6-5.4,9.5-5.4c0.4,0,0.8-0.1,1.2-0.4c1.1,0,2.3,0,3.6,0  c-3,4.7-4.5,13.3-4.5,21.9c0,9,1.7,18.1,5.1,22.6C65.8,83.9,45.2,83.5,30.2,75.9z"></path></svg>