<svg xmlns="http://www.w3.org/2000/svg" xmlns:xlink="http://www.w3.org/1999/xlink" version="1.1" x="0px" y="0px" viewBox="0 0 100 125" enable-background="new 0 0 100 100" xml:space="preserve"><g><path d="M48.167,76.9c-2.013,0-3.72,0.701-5.122,2.103c-1.402,1.4-2.102,3.109-2.102,5.121c0,2.012,0.701,3.719,2.102,5.121   c1.402,1.402,3.109,2.102,5.122,2.102c2.011,0,3.719-0.7,5.121-2.102c1.403-1.402,2.103-3.109,2.103-5.121   c0-2.012-0.7-3.721-2.103-5.121C51.886,77.601,50.178,76.9,48.167,76.9z"/><path d="M72.963,17.387c-1.221-2.227-2.948-3.989-5.175-5.283c-2.229-1.294-4.851-2.191-7.87-2.695   c-3.019-0.502-6.291-0.755-9.811-0.755c-5.032,0-9.148,0.612-12.345,1.833c-3.199,1.223-5.733,2.749-7.601,4.582   c-1.87,1.833-3.163,3.827-3.881,5.984c-0.719,2.156-1.078,4.134-1.078,5.93c0,2.229,0.647,4.043,1.941,5.445   c1.294,1.402,3.09,2.102,5.391,2.102c2.443,0,4.313-0.687,5.607-2.066c1.294-1.376,1.941-3.079,1.941-5.107   c0-1.739-0.665-3.206-1.995-4.402c-1.331-1.196-2.93-1.794-4.798-1.794c0.431-0.92,1.005-1.823,1.725-2.709   c0.718-0.886,1.707-1.664,2.965-2.338c1.257-0.672,2.857-1.221,4.798-1.646c1.941-0.424,4.348-0.638,7.223-0.638   c2.443,0,4.475,0.377,6.091,1.132c1.616,0.755,2.911,1.744,3.883,2.965c0.969,1.223,1.669,2.606,2.1,4.151   c0.432,1.546,0.648,3.109,0.648,4.69c0,2.444-0.395,4.582-1.187,6.415c-0.79,1.833-1.795,3.576-3.016,5.229   c-1.224,1.654-2.572,3.288-4.043,4.906c-1.474,1.617-2.895,3.45-4.26,5.499c-1.366,2.049-2.587,4.404-3.666,7.062   c-1.078,2.66-1.833,5.822-2.264,9.488h6.792c0.502-3.378,1.436-6.271,2.803-8.68c1.366-2.407,2.93-4.564,4.691-6.469   c1.761-1.904,3.593-3.648,5.499-5.229c1.903-1.581,3.648-3.27,5.23-5.068c1.579-1.796,2.89-3.809,3.935-6.038   c1.04-2.227,1.564-4.887,1.564-7.978C74.798,22.454,74.184,19.615,72.963,17.387z"/></g></svg>
