<svg xmlns="http://www.w3.org/2000/svg" xmlns:xlink="http://www.w3.org/1999/xlink" version="1.1" x="0px" y="0px" viewBox="0 0 90 112.5" enable-background="new 0 0 90 90" xml:space="preserve"><path d="M69,38v-1.18V20H30.036L21,27l0,0v11H10.055l-8.786,5.834L1,44l0,0v22h37h4h40v-0.265l0.321,0.201L89,55.25V38H69z   M81.68,42l-2.18,2H63.684l1.759-2H81.68z M42,44h-4H25V31h19.527l5.305,4.003l-2.837,3.404l3.266,2.723l5.694-6.834L51.587,31H58  v13H42z M66,26.023v9.287l-4,4.547V29.466L66,26.023z M31.548,24h30.285l-3.486,3H27.667L31.548,24z M11.262,42H21v2H8.25L11.262,42  z M38,62H15.914l5.45-6.434l-3.244-2.748l-6.733,7.949L10.25,62H5V48h16h17V62z M78,62H42V48h7.962l1.094,9.619l10.908-2.728  l7.253,3.538l1.863-3.822l-8.646-4.216l-7.703,1.925L54.241,48H62h16V62z M82,58.902v-10.42l3-3.824v9.445L82,58.902z"/></svg>