<svg xmlns="http://www.w3.org/2000/svg" xmlns:xlink="http://www.w3.org/1999/xlink" version="1.1" x="0px" y="0px" viewBox="0 0 100 125" enable-background="new 0 0 100 100" xml:space="preserve"><path d="M48.415,78.221l-5.437,5.437L19.777,60.455l5.438-5.438L48.415,78.221z"/><rect x="13.745" y="71.689" transform="matrix(0.7072 -0.707 0.707 0.7072 -45.0736 41.8361)" width="28.46" height="7.299"/><g><g><polygon points="65.581,49.726 84.205,31.105 88.521,14.924 72.768,19.665 54.143,38.288   "/></g><g><rect x="35.495" y="55.971" transform="matrix(-0.7071 0.7071 -0.7071 -0.7071 113.2517 81.2114)" width="8.625" height="16.176"/></g></g><path d="M53.585,77.602l5.437,5.438l23.201-23.2L76.784,54.4L53.585,77.602z"/><rect x="59.796" y="71.072" transform="matrix(-0.7071 -0.7071 0.7071 -0.7071 73.5323 179.9034)" width="28.458" height="7.3"/><g><polygon points="64.859,54.674 29.233,19.047 13.479,14.306 17.794,30.486 53.421,66.113 59.518,72.212 70.959,60.773  "/></g></svg>