<svg xmlns="http://www.w3.org/2000/svg" xmlns:xlink="http://www.w3.org/1999/xlink" version="1.1" x="0px" y="0px" viewBox="0 0 100 125" enable-background="new 0 0 100 100" xml:space="preserve"><g><path d="M37.778,65.216c-8.271-1.3-14.145-4.102-16.489-5.374l0.196,4.006c1.861,1.426,13.465,9.262,37.473,4.101   c7.275-1.681,18.838-5.819,18.838-9.76l0.053-1.75c-11.729,7.324-22.759,9.438-31.575,9.438   C43.14,65.877,40.285,65.61,37.778,65.216z"/><path d="M94.935,58.541c-0.084-1.17-0.818-2.185-2.184-3.014c-3.696-2.252-9.922-4.305-12.98-4.916l-0.014,0.441l-0.014,0.445   l-0.203,6.717c0,6.584-18.135,10.959-20.202,11.436c-6.052,1.301-11.335,1.812-15.894,1.812c-15.909,0-23.021-6.195-23.396-6.533   l-0.269-0.242l-0.854-17.493l-0.024-0.476l-0.021-0.458c-4.166,1.848-14.881,7.67-13.603,18.219   c1.236,10.193,13.809,17.312,30.573,17.313c0.002,0,0.002,0,0.003,0c4.06,0,8.225-0.418,12.38-1.242   c17.95-3.557,31.054-10.648,39.726-15.34c1.797-0.973,3.35-1.813,4.763-2.528l0.082-0.052   C92.896,62.553,95.091,60.714,94.935,58.541z"/><path d="M20.454,24.961c6.601,1.71,34.305,7.848,58.401-2.337c0.147-0.063,0.296-0.127,0.444-0.192   c0.143-0.061,0.285-0.122,0.428-0.184c-1.167-1.201-5.432-4.039-19.705-4.039c-1.079,0-2.209,0.017-3.358,0.049   c-14.663,0.411-32.982,1.83-36.994,6.254c-0.059,0.065-0.101,0.133-0.153,0.199c0.13,0.036,0.28,0.077,0.455,0.124   C20.117,24.873,20.278,24.915,20.454,24.961z"/><path d="M19.664,26.556l0.907,18.586l0.043,0.88l0.021,0.457l0.552,11.299c0.828,0.496,7.271,4.221,16.939,5.728   c9.444,1.473,23.989,1.059,39.786-9.177l0.093-3.032l0.138-4.572l0.672-22.198c-10.36,4.232-21.312,5.569-31,5.569   c-13.49,0-24.521-2.583-28.104-3.527C19.695,26.564,19.68,26.56,19.664,26.556z"/></g></svg>