<svg xmlns="http://www.w3.org/2000/svg" xmlns:xlink="http://www.w3.org/1999/xlink" version="1.1" x="0px" y="0px" viewBox="0 0 100 125" enable-background="new 0 0 100 100" xml:space="preserve"><g display="none"><g display="inline"><g><path d="M51.107,84.025c-0.374,0-0.743-0.017-1.107-0.048c-0.365,0.031-0.734,0.048-1.107,0.048c-4.653,0-8.89-2.48-11.069-6.398     c0,0-0.001,0-0.002,0c-6.731,0-12.244-5.145-12.557-11.585c-4.688-1.864-7.764-6.253-7.764-11.243     c0-1.845,0.44-3.671,1.281-5.332c-0.84-1.661-1.281-3.487-1.281-5.332c0-4.989,3.076-9.378,7.764-11.244     c0.314-6.439,5.826-11.584,12.557-11.584c0.216,0,0.435,0.007,0.664,0.021c2.327-3.324,6.229-5.353,10.408-5.353     c0.373,0,0.742,0.016,1.107,0.047c0.365-0.031,0.734-0.047,1.107-0.047c4.18,0,8.082,2.028,10.408,5.353     c0.229-0.014,0.447-0.021,0.663-0.021c6.73,0,12.243,5.145,12.558,11.583c4.688,1.865,7.764,6.255,7.764,11.245     c0,1.846-0.44,3.672-1.28,5.332c0.84,1.66,1.28,3.487,1.28,5.332c0,4.99-3.076,9.379-7.764,11.244     c-0.314,6.438-5.827,11.584-12.558,11.584c-0.001,0-0.002,0-0.003,0C59.997,81.545,55.761,84.025,51.107,84.025z M50,80.965     l0.144,0.014c0.317,0.03,0.638,0.047,0.963,0.047c3.831,0,7.284-2.181,8.797-5.556l0.433-0.965l1.054,0.083     c0.261,0.021,0.521,0.039,0.788,0.039c5.277,0,9.571-4.111,9.571-9.164c0-0.065-0.006-0.13-0.01-0.195l-0.063-1.388l1.117-0.335     c4.011-1.203,6.705-4.718,6.705-8.746c0-1.592-0.442-3.168-1.278-4.559l-0.465-0.773l0.465-0.773     c0.836-1.39,1.278-2.967,1.278-4.559c0-4.028-2.694-7.543-6.705-8.747l-1.118-0.335l0.063-1.385     c0.004-0.065,0.01-0.13,0.01-0.197c0-5.053-4.294-9.164-9.571-9.164c-0.37,0-0.766,0.028-1.245,0.087l-0.98,0.123l-0.499-0.852     c-1.696-2.893-4.894-4.69-8.347-4.69c-0.325,0-0.646,0.016-0.963,0.047L50,19.035l-0.144-0.014     c-0.317-0.031-0.638-0.047-0.963-0.047c-3.453,0-6.651,1.797-8.347,4.69l-0.5,0.852l-0.98-0.123     c-0.479-0.06-0.875-0.087-1.246-0.087c-5.278,0-9.571,4.111-9.571,9.164c0,0.066,0.006,0.131,0.01,0.196l0.067,1.385     l-1.121,0.336c-4.011,1.204-6.707,4.719-6.707,8.747c0,1.591,0.442,3.168,1.279,4.559l0.464,0.773l-0.464,0.773     c-0.836,1.392-1.279,2.968-1.279,4.559c0,4.028,2.695,7.543,6.706,8.746l1.121,0.336l-0.067,1.387     c-0.004,0.064-0.01,0.13-0.01,0.195c0,5.053,4.293,9.164,9.571,9.164c0.266,0,0.527-0.019,0.788-0.039l1.054-0.083l0.432,0.965     c1.513,3.375,4.966,5.556,8.798,5.556c0.325,0,0.646-0.017,0.963-0.047L50,80.965z"/></g><g><path d="M48.7,67.844c-0.419,0-0.838-0.014-1.256-0.04c-8.605-0.553-15.125-6.468-17.887-16.229     c-0.226-0.797,0.238-1.626,1.035-1.852c0.797-0.223,1.626,0.238,1.852,1.035c3.279,11.588,10.926,13.778,15.192,14.052     c7.212,0.466,14.586-3.731,17.162-9.757c2.275-5.324,0.408-11.126-5.257-16.338c-3.811-3.505-8.15-4.457-12.218-2.678     c-4.522,1.976-7.943,7.096-7.958,11.909c-0.008,2.767,1.068,6.549,6.246,8.85c2.17,0.964,5.065,0.271,7.744-1.857     c2.838-2.254,4.592-5.48,4.17-7.672c-0.233-1.213-1.176-2.092-2.802-2.615c-2.767-0.185-4.68,0.219-5.388,1.139     c-0.717,0.93-0.35,2.628,0.085,3.889c0.27,0.783-0.146,1.637-0.93,1.906c-0.783,0.27-1.636-0.146-1.907-0.93     c-0.98-2.847-0.854-5.1,0.375-6.696c1.418-1.841,4.088-2.59,8.154-2.289c0.108,0.008,0.216,0.028,0.32,0.06     c3.582,1.074,4.717,3.295,5.039,4.969c0.739,3.846-2.104,8.089-5.25,10.588c-3.57,2.835-7.621,3.674-10.829,2.25     c-5.192-2.308-8.043-6.428-8.027-11.601c0.019-6.026,4.123-12.187,9.757-14.649c3.026-1.322,9.057-2.662,15.45,3.219     c9.002,8.283,7.613,15.914,5.984,19.726C64.656,63.014,56.704,67.843,48.7,67.844z"/></g></g></g><g display="none"><g display="inline"><circle cx="50" cy="23.24" r="6.084"/><path d="M58.323,30.396H41.308c-5.021,0-5.353,4.733-5.353,4.733v12.026h9.026V59.87H55.26V47.156h8.785V35.13    C64.045,35.13,63.345,30.396,58.323,30.396z"/></g><g display="inline"><path d="M35.943,49.555h7.319v12.774h13.475V49.555h7.32v33.289h-7.32V68.484H43.263v14.359h-7.319V49.555z"/></g></g><g><g><g><g><path d="M48.719,68.81c-0.12,0-0.239-0.015-0.356-0.043c-0.778-0.19-19.068-5.121-19.068-44.963c0-0.829,0.671-1.5,1.5-1.5      h35.85c0.828,0,1.5,0.671,1.5,1.5c0,39.842-18.29,44.772-19.068,44.963C48.958,68.795,48.838,68.81,48.719,68.81z       M32.303,25.304c0.399,33.078,13.986,39.542,16.407,40.429c2.399-0.912,16.021-7.551,16.425-40.429H32.303z"/></g><g><path d="M48.719,76.374c-3.044,0-5.521-2.369-5.521-5.281c0-2.913,2.477-5.283,5.521-5.283s5.521,2.37,5.521,5.283      C54.239,74.005,51.763,76.374,48.719,76.374z M48.719,68.81c-1.39,0-2.521,1.024-2.521,2.283c0,1.258,1.131,2.281,2.521,2.281      s2.521-1.023,2.521-2.281C51.239,69.834,50.108,68.81,48.719,68.81z"/></g><g><path d="M61.438,84.5H35.999c-0.704,0-1.313-0.489-1.464-1.176c-0.027-0.123-0.644-3.052,1.516-5.741      c2.242-2.793,6.504-4.209,12.668-4.209s10.427,1.416,12.668,4.209c2.16,2.689,1.544,5.618,1.517,5.741      C62.751,84.011,62.142,84.5,61.438,84.5z M37.478,81.5h22.481c-0.096-0.601-0.347-1.354-0.948-2.085      c-1.639-1.989-5.197-3.041-10.292-3.041c-6.489,0-9.199,1.679-10.329,3.087C37.814,80.178,37.571,80.914,37.478,81.5z"/></g></g><g><path d="M32.121,67.12c-1.113,0-2.276-0.214-3.433-0.65c-0.775-0.293-1.166-1.159-0.873-1.934     c0.293-0.775,1.162-1.163,1.934-0.873c2.129,0.804,4.215,0.534,5.448-0.705c1.348-1.356,1.518-3.7,0.467-6.431     c-0.885-2.301-4.898-4.485-8.779-6.599c-6.843-3.726-15.36-8.363-12.329-16.86c1.422-3.989,3.679-6.543,6.708-7.59     c5.001-1.729,10.115,1.439,10.33,1.575c0.701,0.442,0.911,1.368,0.469,2.069c-0.44,0.701-1.365,0.911-2.066,0.471l0,0     c-0.041-0.025-4.139-2.539-7.768-1.274c-2.118,0.738-3.749,2.675-4.848,5.757c-2.018,5.658,3.021,8.907,10.938,13.218     c4.558,2.482,8.863,4.826,10.144,8.156c1.495,3.883,1.08,7.391-1.139,9.623C35.986,66.419,34.136,67.12,32.121,67.12z"/></g><g><path d="M65.267,67.131c-2.033,0-3.895-0.704-5.239-2.058c-2.197-2.21-2.609-5.683-1.129-9.526     c1.279-3.326,5.593-5.685,10.16-8.183c7.955-4.35,13.019-7.625,10.999-13.288c-1.099-3.082-2.73-5.019-4.848-5.757     c-3.629-1.265-7.728,1.249-7.768,1.274c-0.701,0.437-1.626,0.225-2.066-0.475c-0.439-0.701-0.229-1.624,0.47-2.065     c0.215-0.136,5.325-3.305,10.33-1.575c3.028,1.047,5.285,3.601,6.708,7.59c3.03,8.498-5.518,13.172-12.386,16.928     c-3.892,2.127-7.916,4.329-8.8,6.627c-1.036,2.691-0.87,5,0.457,6.335c1.246,1.255,3.366,1.525,5.535,0.704     c0.773-0.291,1.64,0.098,1.934,0.873c0.293,0.774-0.098,1.641-0.873,1.934C67.576,66.913,66.395,67.131,65.267,67.131z"/></g></g></g></svg>