<svg xmlns="http://www.w3.org/2000/svg" xmlns:xlink="http://www.w3.org/1999/xlink" version="1.1" x="0px" y="0px" viewBox="0 0 90 112.5" enable-background="new 0 0 90 90" xml:space="preserve"><polygon fill="#000000" points="52.606,40.384 52.606,27.866 44.139,31.456 44.139,40.384 41.469,40.384 41.469,43.053   55.275,43.053 55.275,40.384 52.606,40.384 "/><polygon fill="#000000" points="70.095,37.347 70.095,24.829 61.627,26.117 61.627,37.347 58.958,37.347 58.958,40.016   72.765,40.016 72.765,37.347 70.095,37.347 "/><polygon fill="#000000" points="82.429,33.849 82.429,23.816 75.985,24.46 75.802,33.849 73.04,33.849 73.04,35.874 84.73,35.874   84.73,33.849 82.429,33.849 "/><path fill="#000000" d="M27.018,70.114c-0.644-0.921-27.429-42.432,26.969-46.206c-5.063,1.012-49.152,4.694-22.275,46.206  c26.969,0,26.969,0,26.969,0c-3.313-3.498-18.777-19.697-20.986-23.287c-0.828-1.381-12.426-21.446,45.193-23.379  c0.645-0.644,0-2.945-1.933-2.945s-42.616-3.866-62.682,9.849C-1.792,43.974,4.467,68.642,4.744,70.114H27.018z"/></svg>