<svg xmlns="http://www.w3.org/2000/svg" xmlns:xlink="http://www.w3.org/1999/xlink" version="1.1" x="0px" y="0px" viewBox="0 0 100 100" enable-background="new 0 0 100 100" xml:space="preserve"><path d="M14.9,38.8H20c1,0,1.6,1.1,1.1,1.9l-1,1.8l-1.1,0c-1.1,0-2.2,0-3.3,0c-0.3,0-0.6,0-0.9,0.1l-1.1-1.8  C13.3,39.9,13.9,38.8,14.9,38.8z M16.1,70.7h2.8c3.7,0,6.5-3.4,5.8-7.1L23.3,57c-0.3-1.4-1.6-2.3-3.2-2.3h-1.2h-2.8h-1.2  c-1.6,0-2.9,1-3.2,2.3l-1.4,6.6C9.5,67.2,12.3,70.7,16.1,70.7z M29.1,23.7c5.5,0,9.9-4.4,9.8-9.8c0-5.6-4.4-9.9-10-9.9  c-5.4,0-9.8,4.5-9.7,10C19.2,19.4,23.7,23.8,29.1,23.7z M11.3,48.7c0,2.5,1.8,4.3,4.4,4.3c5.8,0,11.8,0,17.6,0  c1.8,0,2.8-0.9,2.8-2.9c0-2.7,0-5.5,0-8.2c0-0.1,0-0.1,0.1-0.5c2.8,4.3,5.6,8.4,8.3,12.6c-0.3,0.3-0.6,0.5-1,0.7  c-3.5,2.2-7,4.4-10.5,6.4c-1.7,1-2.4,2.5-2.4,4.4c0,8.4,0.1,16.9,0,25.3c0,3.1,2,5.1,5.2,5.2c3.1,0.1,5.1-1.3,5.6-3.8  c0.1-0.5,0.1-1,0.1-1.5c0-7.1-0.1-14.3-0.1-21.4c0-0.5,0-1,0.6-1.4c3.3-1.9,6.7-3.9,10.1-5.8l4.2-3.4c0.6-0.5,7.2-6.1,2.9-13.1  c-3.4-5.5-6.8-10.9-10.2-16.4c-0.2-0.4-0.5-0.7-0.7-1.2c0.4-0.1,0.7-0.1,0.9-0.1c4,0,8.1,0,12.1-0.1c0.8,0,1.1,0.2,1.5,0.8  c1.4,2.3,2.9,4.6,4.3,6.9c1.4,2.3,4,3,6,1.7c2.4-1.2,2.9-3.8,1.5-6.1c-2-3.3-4-6.6-6-9.9c-0.8-1.3-1.8-1.8-3.2-1.9  c-6.6,0-13.3,0-19.9,0.1c-1.2,0.1-2.6,0.5-3.6,1.1c-3.7,2.3-7.2,4.8-10.9,7.2c-2,1.3-3,3.1-3,5.5c0,3.2,0,6.5,0,9.7  c-0.1,0.4,0,0.8,0,1.3c-0.4,0-0.9,0-1.2,0c-3.7,0-7.2,0-10.9,0C13,44.5,11.3,46.2,11.3,48.7z M86.9,60.1c-1.5-0.9-3-0.8-4.6-0.1  c-4.1,1.7-8.2,3.4-12.3,5.1c-0.4,0.2-0.8,0.3-1.3,0.5c-0.2-0.4-0.3-0.8-0.5-1.2c-1.7-4.1-1.5-3.6-3.3-7.7c-0.1-0.1-0.7-1.6-1.3-2.8  c-1,3.4-3.3,6-5.2,7.6l-2.6,2.1c1.8,4.3,3.6,8.7,5.4,12.9c1,2.5,2.4,3.1,5,2c6.7-2.8,13.4-5.6,20.1-8.4c2-0.6,3.4-2,3.4-4.2  C89.8,63.5,89,61.5,86.9,60.1z"/></svg>