<svg xmlns="http://www.w3.org/2000/svg" xmlns:xlink="http://www.w3.org/1999/xlink" version="1.1" x="0px" y="0px" viewBox="0 0 90 112.5" enable-background="new 0 0 90 90" xml:space="preserve"><path d="M24.565,31.091c3.805,0,6.899-3.091,6.899-7.091h-4.252c0,2-1.17,2.839-2.63,2.839c-2.118,0-3.824-1.531-3.824-3.649  c0-2.94,2.426-5.332,5.366-5.332c3.969,0,7.266,3.229,7.266,7.197c0,5.253-4.391,9.527-9.391,9.527v4.252  c7,0,13.643-6.206,13.643-13.803c0-6.313-5.272-11.473-11.586-11.473c-5.284,0-9.584,4.252-9.584,9.536  C16.473,27.556,20.104,31.091,24.565,31.091z"/><path d="M83.528,38.025l3.435-3.436l0.019-7.495l-2.646-2.646l0.024-0.024l-4.035-4.036l-7.496-0.019l-3.458,3.458l-0.183-0.005  l-3.435-3.435l-7.496-0.019l-3.458,3.458l-0.182-0.005l-3.436-3.435l-7.496-0.019l-4.103,4.103l3.006,3.006l2.853-2.853l3.975,0.011  l3.396,3.396l3.703,0.091l3.497-3.497l3.975,0.011l3.396,3.396l3.704,0.091l3.497-3.497l3.975,0.011l1.338,1.338l-0.024,0.024  l2.853,2.853l-0.011,3.974l-3.396,3.396l-0.091,3.705l3.498,3.497l-0.012,7.722L76.707,55H42.653l-3.905-3.249l-2.722-5.724  L23.136,44.3l-11.946,2.766c-1.612-1.467-3.083-4.429-3.917-6.658l8.332-9.149l-3.145-2.864L2.464,39.371l0.358,1.16  c0.249,0.811,2.56,7.988,6.743,10.626l0.75,0.473l13.025-3.02l9.838,1.314l2.136,4.481L40,58.275V70h-4v4h8V59h6v14h-4v4h8V59h9v11  h-4v4h8V59h6.684L74,59.699V73h-4v4h8V59l0,0v-0.128l8.729-5.418l0.135-11.791l-3.399-3.456L83.528,38.025z"/><polygon points="74.068,39.574 77.074,36.566 73.038,32.531 65.543,32.513 62.085,35.971 61.902,35.966 58.467,32.531   50.972,32.513 46.869,36.615 49.875,39.621 52.728,36.769 56.701,36.779 60.098,40.175 63.802,40.266 67.299,36.769 71.272,36.779   "/><polygon points="58.257,42.227 54.154,46.329 57.16,49.335 60.013,46.482 63.987,46.493 66.781,49.288 69.789,46.282 65.753,42.245   "/></svg>