<svg xmlns="http://www.w3.org/2000/svg" xmlns:xlink="http://www.w3.org/1999/xlink" version="1.1" x="0px" y="0px" viewBox="0 0 90 112.5" enable-background="new 0 0 90 90" xml:space="preserve"><rect x="71.752" y="46.614" transform="matrix(0.7071 0.7071 -0.7071 0.7071 58.4058 -37.01)" width="4.251" height="10.767"/><rect x="71.752" y="32.77" transform="matrix(0.7071 0.7071 -0.7071 0.7071 48.6168 -41.0647)" width="4.251" height="10.767"/><rect x="71.752" y="18.926" transform="matrix(0.7071 0.7071 -0.7071 0.7071 38.8275 -45.1196)" width="4.251" height="10.766"/><rect x="12.78" y="22.184" transform="matrix(0.7072 0.7071 -0.7071 0.7072 22.507 -5.7236)" width="10.766" height="4.251"/><rect x="12.78" y="36.028" transform="matrix(0.7071 0.7071 -0.7071 0.7071 32.2983 -1.6684)" width="10.767" height="4.251"/><rect x="12.78" y="49.872" transform="matrix(0.7071 0.7071 -0.7071 0.7071 42.0873 2.3863)" width="10.767" height="4.251"/><path d="M63.349,33.687l-3.459,0.048c3.208-4.126,3.39-9.285,3.399-9.914l0.06-4.371l-4.371,0.06  c-0.477,0.007-3.566,0.107-6.831,1.558c0.57-1.495,0.973-3.204,0.973-5.055c0-6.011-4.236-10.539-4.719-11.036l-3.048-3.133  l-3.048,3.133c-0.483,0.497-4.719,5.025-4.719,11.036c0,1.851,0.403,3.56,0.973,5.055c-3.265-1.45-6.354-1.551-6.831-1.558  l-4.371-0.06l0.06,4.371c0.009,0.629,0.19,5.787,3.399,9.914l-3.459-0.048l0.06,4.371c0.009,0.629,0.19,5.787,3.399,9.914  l-3.459-0.048l0.06,4.371c0.01,0.693,0.216,6.89,4.466,11.141C36.1,67.649,42.222,67.887,43,67.901V84h4V67.956v0.005v-0.056  l0.483-0.004c0.693-0.01,6.989-0.216,11.24-4.467c4.25-4.25,4.506-10.448,4.516-11.141l0.085-4.371l-3.447,0.048  c3.208-4.126,3.396-9.285,3.405-9.914L63.349,33.687z M43,48.375v1.036c-0.646-0.024-5.186-0.296-8.108-3.219  c-3.152-3.152-3.221-8.193-3.221-8.193s5.041,0.07,8.193,3.221C42.134,43.492,42.802,46.735,43,48.375z M47.622,49.413  c0,0,0.07-5.041,3.222-8.193s8.193-3.221,8.193-3.221s-0.07,5.041-3.222,8.193C52.663,49.344,47.622,49.413,47.622,49.413z   M59.037,23.763c0,0-0.07,5.041-3.222,8.193c-3.152,3.152-8.193,3.222-8.193,3.222s0.07-5.041,3.222-8.193  S59.037,23.763,59.037,23.763z M45.354,7.943c0,0,3.515,3.614,3.515,8.071s-3.515,8.071-3.515,8.071s-3.515-3.614-3.515-8.071  S45.354,7.943,45.354,7.943z M39.863,26.984c2.813,2.813,3.17,7.119,3.215,8.016H43v0.174c-0.646-0.024-5.186-0.296-8.108-3.219  c-3.152-3.152-3.221-8.193-3.221-8.193S36.711,23.832,39.863,26.984z M34.892,60.428c-3.152-3.152-3.221-8.193-3.221-8.193  s5.041,0.07,8.193,3.222c2.271,2.271,2.939,5.514,3.137,7.154v1.036C42.354,63.623,37.814,63.351,34.892,60.428z M55.815,60.428  c-3.152,3.152-8.193,3.222-8.193,3.222s0.07-5.041,3.222-8.193c3.152-3.152,8.193-3.222,8.193-3.222S58.967,57.276,55.815,60.428z"/></svg>